# xmcd
#
# Track frame offsets:
#       182
#       26457
#       50727
#       79057
#       98640
#       111705
#       140067
#       163732
#       189947
#       208500
#
# Disc length: 3061 seconds
#
# Revision: 1
# Processed by: cddbd v1.4PL0 Copyright (c) Steve Scherf et al.
# Submitted via: MusiCat 1.1
#
DISCID=8a0bf30a
DTITLE=Dave Weld and The Imperial Flames Blues Band - Rough Rockin' in Chicago
DYEAR=1900
DGENRE=
TTITLE0=All day long for you
TTITLE1=How do you measure love?
TTITLE2=Tremble, tremble
TTITLE3=J.C.
TTITLE4=Walkin' straight, walkin' tall
TTITLE5=Stop breakin' down - St. Francis
TTITLE6=Hurtin' by the hour
TTITLE7=Lay it on the Line
TTITLE8=Sweet shiny brown eyes
TTITLE9=Love me Slow
EXTD=0\n\n\nsubmitted by Stamppot
EXTT0=
EXTT1=
EXTT2=
EXTT3=
EXTT4=
EXTT5=
EXTT6=
EXTT7=
EXTT8=
EXTT9=
PLAYORDER=
